<mxfile host="app.diagrams.net" modified="2021-01-09T15:21:27.970Z" agent="5.0 (Macintosh; Intel Mac OS X 11_1_0) AppleWebKit/537.36 (KHTML, like Gecko) Chrome/87.0.4280.88 Safari/537.36" etag="wPm6DrXowZ_q8aB5TILD" version="14.1.8" type="github">
  <diagram id="Vy2xMf6rB6mP1ssAV8Z6" name="Page-1">
    <mxGraphModel dx="946" dy="646" grid="1" gridSize="10" guides="1" tooltips="1" connect="1" arrows="1" fold="1" page="1" pageScale="1" pageWidth="1200" pageHeight="1920" math="0" shadow="0">
      <root>
        <mxCell id="0" />
        <mxCell id="1" parent="0" />
        <mxCell id="cDqadRUkF0LDUq5StgBz-3" style="edgeStyle=orthogonalEdgeStyle;rounded=0;orthogonalLoop=1;jettySize=auto;html=1;exitX=0.5;exitY=1;exitDx=0;exitDy=0;entryX=0.5;entryY=0;entryDx=0;entryDy=0;" edge="1" parent="1" source="cDqadRUkF0LDUq5StgBz-1" target="cDqadRUkF0LDUq5StgBz-2">
          <mxGeometry relative="1" as="geometry" />
        </mxCell>
        <mxCell id="cDqadRUkF0LDUq5StgBz-15" style="edgeStyle=orthogonalEdgeStyle;rounded=0;orthogonalLoop=1;jettySize=auto;html=1;exitX=0.5;exitY=1;exitDx=0;exitDy=0;entryX=0.5;entryY=0;entryDx=0;entryDy=0;" edge="1" parent="1" source="cDqadRUkF0LDUq5StgBz-1" target="cDqadRUkF0LDUq5StgBz-14">
          <mxGeometry relative="1" as="geometry" />
        </mxCell>
        <mxCell id="cDqadRUkF0LDUq5StgBz-19" style="edgeStyle=orthogonalEdgeStyle;rounded=0;orthogonalLoop=1;jettySize=auto;html=1;exitX=0.5;exitY=1;exitDx=0;exitDy=0;entryX=0.5;entryY=0;entryDx=0;entryDy=0;" edge="1" parent="1" source="cDqadRUkF0LDUq5StgBz-1" target="cDqadRUkF0LDUq5StgBz-18">
          <mxGeometry relative="1" as="geometry" />
        </mxCell>
        <mxCell id="cDqadRUkF0LDUq5StgBz-1" value="保存逻辑&lt;br&gt;&lt;span&gt;处理结果：&lt;/span&gt;&lt;span&gt;publicIds，&lt;br&gt;&lt;/span&gt;&lt;span style=&quot;text-align: left&quot;&gt;saveLeadsList，&lt;/span&gt;&lt;span&gt;leadsFlowList ,bindIds&lt;/span&gt;" style="rounded=1;whiteSpace=wrap;html=1;" vertex="1" parent="1">
          <mxGeometry x="480" y="10" width="210" height="60" as="geometry" />
        </mxCell>
        <mxCell id="cDqadRUkF0LDUq5StgBz-6" style="edgeStyle=orthogonalEdgeStyle;rounded=0;orthogonalLoop=1;jettySize=auto;html=1;exitX=0.5;exitY=1;exitDx=0;exitDy=0;entryX=0.5;entryY=0;entryDx=0;entryDy=0;" edge="1" parent="1" source="cDqadRUkF0LDUq5StgBz-2" target="cDqadRUkF0LDUq5StgBz-4">
          <mxGeometry relative="1" as="geometry" />
        </mxCell>
        <mxCell id="cDqadRUkF0LDUq5StgBz-7" style="edgeStyle=orthogonalEdgeStyle;rounded=0;orthogonalLoop=1;jettySize=auto;html=1;exitX=0.5;exitY=1;exitDx=0;exitDy=0;entryX=0.5;entryY=0;entryDx=0;entryDy=0;" edge="1" parent="1" source="cDqadRUkF0LDUq5StgBz-2" target="cDqadRUkF0LDUq5StgBz-5">
          <mxGeometry relative="1" as="geometry" />
        </mxCell>
        <mxCell id="cDqadRUkF0LDUq5StgBz-2" value="&lt;span style=&quot;text-align: left&quot;&gt;saveLeadsList数量&amp;gt;0&lt;/span&gt;" style="rounded=1;whiteSpace=wrap;html=1;" vertex="1" parent="1">
          <mxGeometry x="310" y="110" width="120" height="50" as="geometry" />
        </mxCell>
        <mxCell id="cDqadRUkF0LDUq5StgBz-13" style="edgeStyle=orthogonalEdgeStyle;rounded=0;orthogonalLoop=1;jettySize=auto;html=1;exitX=0.5;exitY=1;exitDx=0;exitDy=0;" edge="1" parent="1" source="cDqadRUkF0LDUq5StgBz-4" target="cDqadRUkF0LDUq5StgBz-12">
          <mxGeometry relative="1" as="geometry" />
        </mxCell>
        <mxCell id="cDqadRUkF0LDUq5StgBz-4" value="&lt;div style=&quot;text-align: left&quot;&gt;&lt;span&gt;&lt;font face=&quot;helvetica&quot;&gt;执行分配&lt;/font&gt;&lt;/span&gt;&lt;/div&gt;" style="rounded=1;whiteSpace=wrap;html=1;" vertex="1" parent="1">
          <mxGeometry x="200" y="210" width="120" height="30" as="geometry" />
        </mxCell>
        <mxCell id="cDqadRUkF0LDUq5StgBz-9" style="edgeStyle=orthogonalEdgeStyle;rounded=0;orthogonalLoop=1;jettySize=auto;html=1;exitX=0.5;exitY=1;exitDx=0;exitDy=0;entryX=0.5;entryY=0;entryDx=0;entryDy=0;" edge="1" parent="1" source="cDqadRUkF0LDUq5StgBz-5" target="cDqadRUkF0LDUq5StgBz-8">
          <mxGeometry relative="1" as="geometry" />
        </mxCell>
        <mxCell id="cDqadRUkF0LDUq5StgBz-5" value="publicIds&amp;gt;0" style="rounded=1;whiteSpace=wrap;html=1;" vertex="1" parent="1">
          <mxGeometry x="380" y="210" width="120" height="30" as="geometry" />
        </mxCell>
        <mxCell id="cDqadRUkF0LDUq5StgBz-8" value="推入mns 名：sub_mns_leads_push" style="rounded=1;whiteSpace=wrap;html=1;" vertex="1" parent="1">
          <mxGeometry x="370" y="310" width="140" height="30" as="geometry" />
        </mxCell>
        <mxCell id="cDqadRUkF0LDUq5StgBz-12" value="查询id in(&lt;span style=&quot;text-align: left&quot;&gt;saveLeadsList&lt;/span&gt;)且状态（state）是分配中的线索&lt;br&gt;更新这一批线索状态(state)，组织(businessid)，坐席(staffis)，分配数+1(dispatchedCount+1)，分配时间(dispatchedAt)" style="rounded=1;whiteSpace=wrap;html=1;" vertex="1" parent="1">
          <mxGeometry x="40" y="280" width="310" height="60" as="geometry" />
        </mxCell>
        <mxCell id="cDqadRUkF0LDUq5StgBz-17" style="edgeStyle=orthogonalEdgeStyle;rounded=0;orthogonalLoop=1;jettySize=auto;html=1;exitX=0.5;exitY=1;exitDx=0;exitDy=0;entryX=0.5;entryY=0;entryDx=0;entryDy=0;" edge="1" parent="1" source="cDqadRUkF0LDUq5StgBz-14" target="cDqadRUkF0LDUq5StgBz-16">
          <mxGeometry relative="1" as="geometry" />
        </mxCell>
        <mxCell id="cDqadRUkF0LDUq5StgBz-14" value="leadsFlowList&lt;span style=&quot;text-align: left&quot;&gt;数量&amp;gt;0&lt;/span&gt;" style="rounded=1;whiteSpace=wrap;html=1;" vertex="1" parent="1">
          <mxGeometry x="520" y="110" width="120" height="50" as="geometry" />
        </mxCell>
        <mxCell id="cDqadRUkF0LDUq5StgBz-16" value="批量(100个一组)插入流转表&lt;br&gt;leads_flow_record" style="rounded=1;whiteSpace=wrap;html=1;" vertex="1" parent="1">
          <mxGeometry x="520" y="195" width="120" height="60" as="geometry" />
        </mxCell>
        <mxCell id="cDqadRUkF0LDUq5StgBz-22" style="edgeStyle=orthogonalEdgeStyle;rounded=0;orthogonalLoop=1;jettySize=auto;html=1;exitX=0.5;exitY=1;exitDx=0;exitDy=0;entryX=0.5;entryY=0;entryDx=0;entryDy=0;" edge="1" parent="1" source="cDqadRUkF0LDUq5StgBz-18" target="cDqadRUkF0LDUq5StgBz-20">
          <mxGeometry relative="1" as="geometry" />
        </mxCell>
        <mxCell id="cDqadRUkF0LDUq5StgBz-23" style="edgeStyle=orthogonalEdgeStyle;rounded=0;orthogonalLoop=1;jettySize=auto;html=1;exitX=0.5;exitY=1;exitDx=0;exitDy=0;entryX=0.5;entryY=0;entryDx=0;entryDy=0;" edge="1" parent="1" source="cDqadRUkF0LDUq5StgBz-18" target="cDqadRUkF0LDUq5StgBz-21">
          <mxGeometry relative="1" as="geometry" />
        </mxCell>
        <mxCell id="cDqadRUkF0LDUq5StgBz-18" value="bindIds&lt;span style=&quot;text-align: left&quot;&gt;数量&amp;gt;0&lt;br&gt;还原到小公海的数据&lt;br&gt;所以要传组织&lt;/span&gt;business&lt;span style=&quot;text-align: left&quot;&gt;id&lt;br&gt;&lt;/span&gt;" style="rounded=1;whiteSpace=wrap;html=1;" vertex="1" parent="1">
          <mxGeometry x="740" y="110" width="160" height="50" as="geometry" />
        </mxCell>
        <mxCell id="cDqadRUkF0LDUq5StgBz-27" style="edgeStyle=orthogonalEdgeStyle;rounded=0;orthogonalLoop=1;jettySize=auto;html=1;exitX=0.5;exitY=1;exitDx=0;exitDy=0;entryX=0.5;entryY=0;entryDx=0;entryDy=0;" edge="1" parent="1" source="cDqadRUkF0LDUq5StgBz-20" target="cDqadRUkF0LDUq5StgBz-26">
          <mxGeometry relative="1" as="geometry" />
        </mxCell>
        <mxCell id="cDqadRUkF0LDUq5StgBz-20" value="南海线索还原到小公海&lt;br&gt;businessid=2&lt;br&gt;设置state=2(分配至小公海)&lt;br&gt;dispatchedAt=&#39;0000-00-00-00&#39;" style="rounded=1;whiteSpace=wrap;html=1;" vertex="1" parent="1">
          <mxGeometry x="670" y="225" width="180" height="55" as="geometry" />
        </mxCell>
        <mxCell id="cDqadRUkF0LDUq5StgBz-28" style="edgeStyle=orthogonalEdgeStyle;rounded=0;orthogonalLoop=1;jettySize=auto;html=1;exitX=0.5;exitY=1;exitDx=0;exitDy=0;" edge="1" parent="1" source="cDqadRUkF0LDUq5StgBz-21">
          <mxGeometry relative="1" as="geometry">
            <mxPoint x="840" y="330" as="targetPoint" />
          </mxGeometry>
        </mxCell>
        <mxCell id="cDqadRUkF0LDUq5StgBz-21" value="其他线索还原到大公海&lt;br&gt;设置state=1(分配至大公海（未分配）)&lt;br&gt;dispatchedAt=&#39;0000-00-00-00&#39;" style="rounded=1;whiteSpace=wrap;html=1;" vertex="1" parent="1">
          <mxGeometry x="870" y="225" width="230" height="55" as="geometry" />
        </mxCell>
        <mxCell id="cDqadRUkF0LDUq5StgBz-24" value="&lt;span&gt;business&lt;/span&gt;&lt;span style=&quot;text-align: left&quot;&gt;id=2&lt;/span&gt;" style="text;html=1;align=center;verticalAlign=middle;resizable=0;points=[];autosize=1;" vertex="1" parent="1">
          <mxGeometry x="730" y="170" width="90" height="20" as="geometry" />
        </mxCell>
        <mxCell id="cDqadRUkF0LDUq5StgBz-25" value="business&lt;span style=&quot;text-align: left&quot;&gt;id!=2&lt;/span&gt;" style="text;html=1;align=center;verticalAlign=middle;resizable=0;points=[];autosize=1;" vertex="1" parent="1">
          <mxGeometry x="830" y="170" width="90" height="20" as="geometry" />
        </mxCell>
        <mxCell id="cDqadRUkF0LDUq5StgBz-26" value="更新leads_public表" style="rounded=1;whiteSpace=wrap;html=1;" vertex="1" parent="1">
          <mxGeometry x="780" y="330" width="120" height="60" as="geometry" />
        </mxCell>
        <mxCell id="cDqadRUkF0LDUq5StgBz-35" value="publicIds" style="rounded=1;whiteSpace=wrap;html=1;" vertex="1" parent="1">
          <mxGeometry x="460" y="440" width="110" height="40" as="geometry" />
        </mxCell>
        <mxCell id="cDqadRUkF0LDUq5StgBz-40" style="edgeStyle=orthogonalEdgeStyle;rounded=0;orthogonalLoop=1;jettySize=auto;html=1;exitX=0.5;exitY=0;exitDx=0;exitDy=0;entryX=0.5;entryY=1;entryDx=0;entryDy=0;" edge="1" parent="1" source="cDqadRUkF0LDUq5StgBz-36" target="cDqadRUkF0LDUq5StgBz-37">
          <mxGeometry relative="1" as="geometry" />
        </mxCell>
        <mxCell id="cDqadRUkF0LDUq5StgBz-41" style="edgeStyle=orthogonalEdgeStyle;rounded=0;orthogonalLoop=1;jettySize=auto;html=1;exitX=0.5;exitY=0;exitDx=0;exitDy=0;entryX=0.5;entryY=1;entryDx=0;entryDy=0;" edge="1" parent="1" source="cDqadRUkF0LDUq5StgBz-36" target="cDqadRUkF0LDUq5StgBz-35">
          <mxGeometry relative="1" as="geometry" />
        </mxCell>
        <mxCell id="cDqadRUkF0LDUq5StgBz-42" style="edgeStyle=orthogonalEdgeStyle;rounded=0;orthogonalLoop=1;jettySize=auto;html=1;exitX=0.5;exitY=0;exitDx=0;exitDy=0;entryX=0.5;entryY=1;entryDx=0;entryDy=0;" edge="1" parent="1" source="cDqadRUkF0LDUq5StgBz-36" target="cDqadRUkF0LDUq5StgBz-39">
          <mxGeometry relative="1" as="geometry" />
        </mxCell>
        <mxCell id="cDqadRUkF0LDUq5StgBz-43" style="edgeStyle=orthogonalEdgeStyle;rounded=0;orthogonalLoop=1;jettySize=auto;html=1;exitX=0.5;exitY=0;exitDx=0;exitDy=0;entryX=0.558;entryY=1.05;entryDx=0;entryDy=0;entryPerimeter=0;" edge="1" parent="1" source="cDqadRUkF0LDUq5StgBz-36" target="cDqadRUkF0LDUq5StgBz-38">
          <mxGeometry relative="1" as="geometry" />
        </mxCell>
        <mxCell id="cDqadRUkF0LDUq5StgBz-36" value="大公海分配小公海" style="rounded=1;whiteSpace=wrap;html=1;" vertex="1" parent="1">
          <mxGeometry x="300" y="630" width="120" height="60" as="geometry" />
        </mxCell>
        <mxCell id="cDqadRUkF0LDUq5StgBz-37" value="&lt;span style=&quot;text-align: left&quot;&gt;saveLeadsList&lt;/span&gt;" style="rounded=1;whiteSpace=wrap;html=1;" vertex="1" parent="1">
          <mxGeometry x="290" y="440" width="100" height="40" as="geometry" />
        </mxCell>
        <mxCell id="cDqadRUkF0LDUq5StgBz-38" value="bindIds" style="rounded=1;whiteSpace=wrap;html=1;" vertex="1" parent="1">
          <mxGeometry x="860" y="440" width="120" height="40" as="geometry" />
        </mxCell>
        <mxCell id="cDqadRUkF0LDUq5StgBz-39" value="leadsFlowList" style="rounded=1;whiteSpace=wrap;html=1;" vertex="1" parent="1">
          <mxGeometry x="660" y="440" width="110" height="40" as="geometry" />
        </mxCell>
        <mxCell id="cDqadRUkF0LDUq5StgBz-45" value="分配大公海到私海&lt;br&gt;分配小公海到私海" style="rounded=1;whiteSpace=wrap;html=1;" vertex="1" parent="1">
          <mxGeometry x="520" y="630" width="120" height="60" as="geometry" />
        </mxCell>
        <mxCell id="cDqadRUkF0LDUq5StgBz-46" value="分配小公海到私海（单独一套逻辑）&lt;br&gt;（已有线索和坐席绑定）&lt;br&gt;数据表备注：私海分配到小公海" style="rounded=1;whiteSpace=wrap;html=1;" vertex="1" parent="1">
          <mxGeometry x="740" y="630" width="220" height="50" as="geometry" />
        </mxCell>
        <mxCell id="cDqadRUkF0LDUq5StgBz-47" value="是" style="text;html=1;align=center;verticalAlign=middle;resizable=0;points=[];autosize=1;" vertex="1" parent="1">
          <mxGeometry x="265" y="160" width="30" height="20" as="geometry" />
        </mxCell>
        <mxCell id="cDqadRUkF0LDUq5StgBz-48" value="是" style="text;html=1;align=center;verticalAlign=middle;resizable=0;points=[];autosize=1;" vertex="1" parent="1">
          <mxGeometry x="450" y="160" width="30" height="20" as="geometry" />
        </mxCell>
        <mxCell id="cDqadRUkF0LDUq5StgBz-49" value="只有大于零才能有下面逻辑" style="text;html=1;align=center;verticalAlign=middle;resizable=0;points=[];autosize=1;" vertex="1" parent="1">
          <mxGeometry x="140" y="125" width="160" height="20" as="geometry" />
        </mxCell>
      </root>
    </mxGraphModel>
  </diagram>
</mxfile>
